<svg width="63" height="64" viewBox="0 0 63 64" fill="none" xmlns="http://www.w3.org/2000/svg">
<path d="M62.9939 1.84516C62.9939 2.39119 62.6928 3.03137 62.2976 3.85983C61.1684 6.13808 60.0393 8.39749 58.9102 10.6757C57.9128 12.6716 56.9153 14.6674 55.9367 16.6632C54.9769 18.5837 54.036 20.5042 53.0762 22.4247C51.74 25.1172 50.4227 27.8097 49.0865 30.4834C48.1832 32.3098 47.2611 34.1361 46.339 35.9437C45.3415 37.9206 44.3253 39.9164 43.3467 41.9123C42.1799 44.2847 41.0131 46.6571 39.8463 49.0107C38.943 50.8747 38.0208 52.7199 37.1175 54.5839C35.5555 57.7282 34.257 60.3077 33.0338 62.7366C32.8832 63.019 32.4504 63.8663 31.6223 63.8663C30.7755 63.8663 30.3426 62.9814 30.1733 62.6425C29.3452 60.9479 28.4983 59.2722 27.6515 57.5965C26.9928 56.2973 26.3529 54.9981 25.7131 53.6989C24.7157 51.7031 23.7183 49.6884 22.7397 47.6738C21.46 45.0755 20.1614 42.4583 18.8629 39.86C17.9031 37.9583 16.9434 36.0378 15.9836 34.1361C15.0238 32.2344 14.064 30.3139 13.1043 28.4122C12.2009 26.5859 11.2976 24.7595 10.4131 22.952C9.5098 21.1068 8.58762 19.2427 7.66548 17.3975C6.47987 15.0252 5.29429 12.6716 4.10868 10.318C3.31827 8.7364 2.50901 7.15483 1.7186 5.57323C1.21049 4.57532 0.79646 3.70918 0.420076 2.84307C0.156607 2.22173 0.13779 1.67569 0.36362 1.24263C0.514174 0.960205 0.852926 0.583687 1.60569 0.470715C1.9068 0.43306 2.20795 0.433022 2.47142 0.433022H2.65956L60.4345 0.433022C61.5637 0.433022 62.3917 0.489517 62.8058 1.14851C62.9375 1.37446 62.9939 1.60039 62.9939 1.84516ZM31.6223 61.9835C32.8456 59.5734 34.1441 56.9939 35.6873 53.8684C36.6094 52.0232 37.5127 50.1591 38.416 48.314C39.5828 45.9416 40.7496 43.5692 41.9164 41.1968C42.9139 39.2009 43.9113 37.2052 44.9087 35.2282C45.8308 33.4206 46.7341 31.5943 47.6563 29.7679C48.9924 27.0942 50.3098 24.4018 51.6459 21.7093C52.5869 19.7888 53.5467 17.8683 54.5065 15.9289C55.5039 13.9331 56.4825 11.9373 57.4799 9.94146C58.609 7.66321 59.7382 5.40374 60.8674 3.12549C61.112 2.63594 61.2626 2.27821 61.3379 2.07109C61.1685 2.05227 60.8862 2.03346 60.4345 2.03346L2.45258 2.03346C2.22675 2.03346 2.03855 2.03348 1.85035 2.0523H1.83152C1.85033 2.08996 1.86921 2.12757 1.88803 2.18406C2.26441 3.03135 2.65958 3.85981 3.14888 4.83889C3.93929 6.42049 4.72967 8.00212 5.5389 9.58372C6.72451 11.9373 7.91015 14.3096 9.09575 16.6632C10.0179 18.5084 10.9212 20.3724 11.8433 22.2176C12.7467 24.044 13.6312 25.8704 14.5345 27.6779C15.4943 29.5796 16.4541 31.5001 17.4139 33.4018C18.3736 35.3035 19.3334 37.224 20.2932 39.1257C21.5917 41.724 22.8714 44.3412 24.1699 46.9395C25.1674 48.9542 26.1459 50.9499 27.1434 52.9646C27.7832 54.2638 28.4419 55.563 29.0817 56.8433C29.9286 58.5191 30.7755 60.2136 31.6035 61.9082C31.6035 61.9646 31.6035 61.9647 31.6223 61.9835Z" fill="#B3B3B3"/>
</svg>
