<svg width="153" height="38" viewBox="0 0 153 38" fill="none" xmlns="http://www.w3.org/2000/svg">
<path d="M12.0302 24.4145H0V36.4985H12.0302V24.4145Z" fill="#010101"/>
<path d="M12.0302 0.246582H0V12.3306H12.0302V0.246582Z" fill="#010101"/>
<path d="M24.0603 0.246582V36.4985H36.0905V0.246582H24.0603ZM36.0905 24.4145H24.0603V12.3306H36.0905V24.4145Z" fill="#CB333E"/>
<path d="M12.0302 12.3306V24.4145H24.0603V12.3306H36.0905V24.4145H48.1207V12.3306H12.0302Z" fill="#CB333E"/>
<path d="M74.1451 14.3035H64.3246V10.6043H73.8996V7.64499H64.3246V3.94582H74.1451V0.739868H60.3964V17.5095H74.1451V14.3035Z" fill="#010101"/>
<path d="M110.972 0.739868H107.044V10.3577C107.044 11.5908 106.798 12.8238 106.062 13.5637C105.325 14.3035 104.343 14.7967 103.116 14.7967C101.888 14.7967 100.906 14.3035 100.17 13.5637C99.433 12.8238 99.1875 11.8374 99.1875 10.3577V0.739868H95.2593V10.3577C95.2593 12.8238 95.9958 14.7967 97.2234 16.0298C98.6965 17.2628 100.661 18.0027 103.116 18.0027C105.816 18.0027 107.78 17.2628 109.008 16.0298C110.481 14.7967 110.972 12.8238 110.972 10.3577V0.739868Z" fill="#010101"/>
<path d="M116.619 5.9187H112.691V17.2628H116.619V5.9187Z" fill="#010101"/>
<path d="M116.619 0.739868H112.691V4.68565H116.619V0.739868Z" fill="#CB333E"/>
<path d="M118.092 4.19243H124.476V17.5095H128.404V4.19243H134.542V0.739868H118.092V4.19243Z" fill="#010101"/>
<path d="M148.536 0.739868L144.117 8.13822H143.871L139.452 0.739868H135.278L142.152 12.084V17.5095H146.081V12.084L152.71 0.739868H148.536Z" fill="#010101"/>
<path d="M73.8996 21.4552C72.9176 20.4687 71.199 19.9755 68.9893 19.9755H60.3964V36.4985H64.3246V32.3061H68.9893C71.199 32.3061 72.9176 31.8129 74.1451 30.8264C75.3727 29.84 75.8637 28.3603 75.8637 26.3874C75.8637 24.1679 75.1272 22.6883 73.8996 21.4552ZM70.9534 28.1137C70.4624 28.6069 69.7259 28.8535 68.7438 28.8535H64.3246V23.4281H68.7438C69.7259 23.4281 70.4624 23.6747 70.9534 24.1679C71.4445 24.6611 71.69 25.401 71.69 26.1408C71.9355 27.1273 71.4445 27.6205 70.9534 28.1137Z" fill="#010101"/>
<path d="M81.265 19.9755H77.3368V36.7451H90.5945V33.2926H81.265V19.9755Z" fill="#010101"/>
<path d="M104.098 29.5934C104.098 30.8264 103.852 32.0595 103.116 32.7993C102.379 33.5392 101.397 34.0324 100.17 34.0324C98.942 34.0324 97.9599 33.5392 97.2234 32.7993C96.4868 32.0595 96.2413 31.073 96.2413 29.5934V19.9755H92.3131V29.84C92.3131 32.3061 93.0497 34.279 94.2772 35.5121C95.7503 36.7451 97.7144 37.485 100.17 37.485C102.87 37.485 104.834 36.7451 106.062 35.5121C107.289 34.0324 108.026 32.3061 108.026 29.84V19.9755H104.098V29.5934Z" fill="#010101"/>
<path d="M121.775 27.8671C121.038 27.6205 119.811 27.3739 117.847 26.8806L116.128 26.634C114.409 26.3874 113.673 25.6476 113.673 24.6611C113.673 23.9213 113.918 23.4281 114.655 23.1815C115.146 22.9349 116.128 22.6883 117.11 22.6883C119.32 22.6883 120.793 23.4281 121.038 25.1544H124.475C124.475 21.4552 122.02 19.4823 117.11 19.4823C114.9 19.4823 112.936 19.9755 111.709 20.7154C110.481 21.7018 109.745 22.9349 109.745 24.4145C109.745 25.1544 109.745 25.6476 109.99 26.3874C110.236 26.8806 110.481 27.3739 110.972 27.6205C111.218 27.8671 111.709 28.3603 112.445 28.6069C112.936 28.8535 113.673 29.1002 114.164 29.1002C114.655 29.3468 115.391 29.3468 116.128 29.5934L118.092 29.84C119.074 30.0866 119.811 30.3332 120.302 30.5798C120.793 30.8264 121.038 31.3197 121.038 31.8129C121.038 32.5527 120.793 33.0459 120.056 33.2925C119.32 33.7858 118.338 33.7858 117.11 33.7858C115.883 33.7858 114.655 33.5392 114.164 33.0459C113.182 33.0459 112.936 32.3061 112.936 31.5663H109.499C109.499 33.5392 110.236 35.0188 111.463 35.7587C112.691 36.7451 114.655 37.2383 117.11 37.2383C119.565 37.2383 121.529 36.7451 123.002 36.0053C124.23 35.0188 124.967 33.7858 124.967 32.0595C124.967 31.8129 124.967 31.8129 124.967 31.8129C124.721 29.84 123.739 28.6069 121.775 27.8671Z" fill="#010101"/>
<path d="M84.4568 18.0026C85.9299 18.0026 87.6485 17.5094 89.1216 16.7696L90.3491 18.0026H95.2594L88.6305 12.084H83.9658L86.4209 14.3035C85.9299 14.5501 85.1934 14.5501 84.4568 14.5501C82.9837 14.5501 81.7562 14.0569 80.7741 13.0704C79.7921 12.084 79.301 10.8509 79.301 9.12463C79.301 7.39835 79.7921 6.16529 80.7741 5.17884C81.7562 4.1924 82.9837 3.69917 84.4568 3.69917C85.9299 3.69917 87.1575 4.1924 88.1395 5.17884C89.1216 6.16529 89.6126 7.39835 89.6126 9.12463C89.6126 10.1111 89.3671 10.8509 89.1216 11.3441H93.2953C93.5408 10.6043 93.5408 9.86446 93.5408 8.87802C93.5408 6.4119 92.8043 4.1924 91.0857 2.46612C89.3671 0.739835 87.1575 0 84.4568 0C81.7562 0 79.5465 0.739835 77.8279 2.46612C76.1093 4.1924 75.3728 6.16529 75.3728 8.87802C75.3728 11.5907 76.1093 13.5636 77.8279 15.2899C79.5465 17.2628 81.7562 18.0026 84.4568 18.0026Z" fill="#010101"/>
</svg>
